<svg xmlns="http://www.w3.org/2000/svg" width="25" height="25" viewBox="0 0 25 25" version="1.1"><path d="M 10.046 6.444 C 7.345 9.699, 11.815 13.614, 14.811 10.618 C 16.084 9.344, 16.215 8.563, 15.376 7.231 C 13.916 4.913, 11.601 4.571, 10.046 6.444 M 6.582 14.316 C 5.592 15.040, 4.950 16.502, 5.155 17.566 C 5.481 19.257, 6.402 19.500, 12.500 19.500 C 18.598 19.500, 19.519 19.257, 19.845 17.566 C 20.050 16.502, 19.408 15.040, 18.418 14.316 C 16.096 12.618, 8.904 12.618, 6.582 14.316" stroke="none" fill="#37ab4d" fill-rule="evenodd"/><path d="M 5.763 1.565 C -1.960 5.756, -1.832 19.450, 5.967 23.483 C 12.447 26.834, 20.234 24.659, 23.880 18.479 C 25.977 14.925, 26.907 6.321, 25.072 7.456 C 24.562 7.771, 23.846 7.091, 23.483 5.946 C 21.873 0.872, 11.682 -1.646, 5.763 1.565 M 10.046 6.444 C 7.345 9.699, 11.815 13.614, 14.811 10.618 C 16.084 9.344, 16.215 8.563, 15.376 7.231 C 13.916 4.913, 11.601 4.571, 10.046 6.444 M 0.286 12.500 C 0.294 15.250, 0.488 16.256, 0.718 14.736 C 0.947 13.216, 0.941 10.966, 0.704 9.736 C 0.467 8.506, 0.279 9.750, 0.286 12.500 M 6.582 14.316 C 5.592 15.040, 4.950 16.502, 5.155 17.566 C 5.481 19.257, 6.402 19.500, 12.500 19.500 C 18.598 19.500, 19.519 19.257, 19.845 17.566 C 20.050 16.502, 19.408 15.040, 18.418 14.316 C 16.096 12.618, 8.904 12.618, 6.582 14.316" stroke="none" fill="#fbfbfb" fill-rule="evenodd"/></svg>